<svg xmlns="http://www.w3.org/2000/svg" viewBox="0 0 55.92 53.72"><defs><style>.cls-1{stroke:#000;stroke-miterlimit:10;}</style></defs><title>icon_1</title><g id="圖層_2" data-name="圖層 2"><g id="圖層_1-2" data-name="圖層 1"><path class="cls-1" d="M55.42,2a1.51,1.51,0,0,0-1.5-1.5L14.42,4.74a1.62,1.62,0,0,0-.43.11,1.37,1.37,0,0,0-1.07,1.39V43.08A9,9,0,0,0,8,42.95C3.86,43.87.5,46.85.5,49.61S3.86,53.87,8,52.95c3.34-.74,6.16-2.82,7.14-5a1.35,1.35,0,0,0,.78-1.28V17.45l36.41-3.9V39.27a9.19,9.19,0,0,0-4.74-.07c-4.14.92-7.5,3.91-7.5,6.67s3.36,4.25,7.5,3.33c3.45-.77,6.35-3,7.22-5.28a1.37,1.37,0,0,0,.52-1.12V12.39a1.46,1.46,0,0,0,.09-.51Z"/></g></g></svg>