<svg xmlns="http://www.w3.org/2000/svg" viewBox="0 0 27.73 41.05"><defs><style>.cls-1{stroke:#000;stroke-miterlimit:10;}</style></defs><title>icon_3</title><g id="圖層_2" data-name="圖層 2"><g id="圖層_1-2" data-name="圖層 1"><line x1="14.42" y1="1.45" x2="14.42" y2="33.95"/><path d="M12.92,1.45v32.5a1.5,1.5,0,0,0,3,0V1.45a1.5,1.5,0,0,0-3,0Z"/><path class="cls-1" d="M15.5,33.62c0,2.76-3.36,5.75-7.5,6.67S.5,39.71.5,36.95,3.86,31.2,8,30.28,15.5,30.85,15.5,33.62Z"/><path class="cls-1" d="M15,2.74a.36.36,0,0,1,.61-.26c2.93,2.62,9.57,7.17,11.12,11.68,1.37,4-.21,10-2.83,12.26a.37.37,0,0,1-.55-.48c1.45-2.11,2.65-7,1.37-10.11C23.07,11.76,16.41,9.6,14.95,9a.36.36,0,0,1-.23-.36Z"/></g></g></svg>