<svg xmlns="http://www.w3.org/2000/svg" viewBox="0 0 182.59 158.72"><defs><style>.cls-1{fill:#fff;}.cls-2{font-size:32.73px;font-family:Chalkboard, Chalkboard;}.cls-3{letter-spacing:-0.09em;}.cls-4{letter-spacing:0em;}.cls-5{letter-spacing:-0.07em;}.cls-6{letter-spacing:-0.03em;}.cls-7{letter-spacing:0em;}.cls-8{letter-spacing:-0.03em;}</style></defs><title>intro_1</title><g id="圖層_2" data-name="圖層 2"><g id="圖層_1-2" data-name="圖層 1"><path class="cls-1" d="M181.1,59.17C170.87,16.86,120.35-3.26,80.85.43c-13.09,1.22-26.16,4.93-37.31,12-14.61,9.3-28.1,22.4-36.1,37.88a64.08,64.08,0,0,0-4.77,12c-7.94,28.07,3.8,51.4,10,60,3.66,5.08-1.66,8.53-4.83,13.14C4,141-4.06,145.68,6,150.3c9.07,4.16,18.58,1.9,26.92-1.76A7.69,7.69,0,0,1,40,149c14.41,8.79,33.66,9.67,33.67,9.67,39.52,1.81,88.42-23.58,103.66-61.44a77,77,0,0,0,4.47-16A54.51,54.51,0,0,0,181.1,59.17Z"/><path class="cls-1" d="M34.51,139.46C14.23,153.46,4.63,143,11,141.8s11.74-16.33,11.74-16.33l-.08.11C12.82,112.75,7.83,96.46,7.83,80c0-36.08,37.73-72.33,84.28-72.33S175.33,36.88,175.33,73s-50.54,78.17-97.09,78.17c-17.32,0-31.5-4.86-42.48-12.82Z"/><path d="M33.75,138.17c-5.27,3.52-11.68,7.32-18.28,7-.63,0-4.56-.29-4.73-1.5-.07-.48,1.3-.53,2.19-.94,6-2.74,9.22-11.07,11.29-16.86.48-1.36-1.59-2.65-2.51-1.46l-.08.11,2.36.3C13.6,111,8.06,93.05,9.51,75.71c1.15-13.84,7.77-26.84,16.87-37.16,21.16-24,54-33.49,85-27.67,26.52,5,53.84,21.84,60.86,49.46,7.15,28.15-13.5,53.43-35.13,68.78-28.84,20.47-69.81,29.7-100.61,7.9a1.52,1.52,0,0,0-1.82.23l-1.26,1.15c-1.43,1.3.7,3.42,2.12,2.12l1.26-1.15-1.82.23c28.54,20.21,66.39,14.57,95-2.31,23.36-13.77,49-39.08,46.64-68.56-2.34-29-26.87-49.78-53.2-58-31.63-9.83-67-3.8-92,18.43C19.41,39.93,9.94,54.39,7.18,70.46c-3.32,19.3,2.58,40.34,14.21,55.87.51.67,1.7,1.15,2.36.3l.08-.11-2.51-1.46c-1.62,4.54-3.87,9.73-7.33,13.17-1.83,1.82-7,2.26-6.34,5.83.56,2.89,4.56,3.85,7,4,7.42.62,14.71-3.4,20.64-7.36C36.86,139.69,35.36,137.09,33.75,138.17Z"/><text class="cls-2" transform="translate(31.83 63.99)">Hi <tspan x="0" y="39.28">i</tspan><tspan class="cls-3" x="8.17" y="39.28">’</tspan><tspan class="cls-4" x="13.78" y="39.28">m</tspan><tspan class="cls-5" x="37.91" y="39.28"> </tspan><tspan class="cls-6" x="48.18" y="39.28">A</tspan><tspan class="cls-7" x="68.47" y="39.28">b</tspan><tspan class="cls-8" x="86.81" y="39.28">b</tspan><tspan x="104.1" y="39.28">y</tspan></text></g></g></svg>