<svg xmlns="http://www.w3.org/2000/svg" viewBox="0 0 403.15 370.27"><defs><style>.cls-1{fill:#9dd7f4;}.cls-2{fill:#e01e5a;}.cls-3{fill:none;stroke:#000;stroke-miterlimit:10;}</style></defs><title>visual</title><g id="圖層_2" data-name="圖層 2"><g id="上色"><path class="cls-1" d="M281.1,281.69s-11.33,22-23.33,29.33-21.33,8.67-18.67,22.67,4,23.33,12.67,26,116.67,0,116.67,0,25.33-1.33,25.33-27.33V27s-6-20-32.67-19.33-328.67,0-328.67,0S9.76,7.69,9.1,33s0,298.67,0,298.67-2,26.67,20.67,30,138,0,138,0a28.32,28.32,0,0,0,12.67-24c0-16.67-.67-20-.67-20s-20-3.33-30-17.33-10-16.67-10-16.67-20,11.33-38.67,10-25.33-33.33-25.33-38-16-48.67,40-142c16.52-27.53,38.45-56.93,69-69.78C229.49,25.16,274.29,60.25,295.2,97c24,42.27,47.31,93.51,51,142.48,1.1,14.79,1.19,35.5-11.73,45.55C314.62,300.43,290.43,299.69,281.1,281.69Z"/></g><g id="圖層_1-2" data-name="圖層 1"><path d="M142.15,266.93c3.69,12.6,8.52,24.29,18.77,33.14a48.74,48.74,0,0,0,13.24,8.17c2.6,1.07,5.4,1.62,8,2.72,4.46,1.91,6,5.5,6.52,10.12,1,10.22.79,21.25-2.81,31-2.11,5.7-7,14.16-13.64,15-3.4.41-7.11,0-10.53,0H117.73c-27.86,0-55.73.08-83.6,0-16.77,0-30.79-11.48-31-28.89-.07-5.08,0-10.17,0-15.25V33.65C3.1,17.21,14.48,3.35,31.6,3,44.8,2.78,58,3,71.21,3H368.93c15,0,28.72,8.86,30.88,24.65.64,4.67.28,9.59.28,14.29V333.62c0,11.39-2.76,22.08-13.05,28.82-9.29,6.08-21.32,4.58-31.92,4.58H260.29c-3.42,0-7.38.55-10.77,0-7.51-1.23-12.42-11.91-14.23-18.36-2.56-9.15-3.64-21.42-1.29-30.8,1.9-7.59,10.91-8,16.92-10.94a49.42,49.42,0,0,0,12.42-8.74c9.29-8.91,14.1-20.21,17.7-32.27.55-1.85-2.34-2.65-2.89-.8-4.36,14.6-11,28.38-24.42,36.81a45.85,45.85,0,0,1-8.12,4.06c-2.88,1.09-6.08,1.54-8.73,3.17-4.19,2.57-5.8,6.78-6.26,11.45-1,10.1-.86,20.82,2.28,30.56,2.23,6.91,7.86,17.44,15.88,18.85,2.61.46,5.71,0,8.35,0h96.18c9.77,0,21.31,1.4,30.49-2.5,12.91-5.48,19.27-17.92,19.27-31.41V41.19c0-5.73.44-11.79-1-17.38C398.39,9,384.87.08,370.06,0,352,0,333.9,0,315.81,0H39.56C33.2,0,26.86-.31,20.76,2,7.3,7,.1,19.65.1,33.56V328.09c0,5.06-.4,10.42.41,15.43C3.32,360.81,18.72,370,35.19,370H166.56a48.68,48.68,0,0,0,6.54,0c8.59-1.2,14.39-12.65,16.55-20,2.81-9.55,3-20,1.9-29.87-.55-5-2.69-9.4-7.43-11.66-5.58-2.67-11.46-3.73-16.74-7.26C154.84,292.86,149.11,280,145,266.13c-.54-1.85-3.44-1.06-2.89.8Z"/><path d="M285.33,207.26a1.5,1.5,0,0,0,0-3,1.5,1.5,0,0,0,0,3Z"/><path d="M283.1,240c-.86,5.62-1.95,11.19-3.18,16.74-.75,3.38-2.1,7.12-1.91,10.62.34,6,6.16,10,11,12.4,9.56,4.78,23.82,9.92,34.33,5.3,9-4,12.92-14,14.65-23,2.35-12.26,1.75-25.05.32-37.38a190.83,190.83,0,0,0-6.15-31.78c-5.85-19.91-16.06-38.76-25.7-57C295.7,115.4,285.85,93.41,270.31,76c-13.46-15.09-32-26.1-52.27-28.3-47.86-5.19-77,41-96.7,77.27-22.09,40.63-47.65,90.2-35.86,137.9,2.13,8.6,5.84,18,14.4,22,7.81,3.63,16.08,1.42,23.93-.8,6.31-1.79,13.81-4,18.39-9,3.49-3.81,3.23-8.09,1.94-12.72-3.5-12.54-7.18-24.62-7.41-37.8a90.53,90.53,0,0,1,4.27-29,101.79,101.79,0,0,1,7-16.57c1.27-2.42,2.64-6.22,4.66-8,.91-.82.86-3.13,2.89-1.09.26.26.12,2.83.22,3.39,1.82,10.42,11.53,9.71,19.8,10.33,13,1,26,1.5,39,1.67,12.43.16,25.07.28,37.41-1.44,3.27-.45,7.27-.86,10.11-2.71a11,11,0,0,0,2.54-2.64,12.89,12.89,0,0,0,2-2.82c.37-.84.33-1.74.65-2.55l0-1.42q3.32-4,4.6-.33c3.92,4.32,6.26,11.71,8.06,17.14a94.05,94.05,0,0,1,3.89,17.36c.25,1.89,3.25,1.91,3,0a92.76,92.76,0,0,0-8-28.14c-1.62-3.39-7.88-18.52-13.31-10.9a7.63,7.63,0,0,0-1.21,3.4c-.41,2.84-.16,4-2.06,6.44a6.57,6.57,0,0,1-2.64,2.37c-3.35,1.61-7.68,1.87-11.31,2.25-24,2.48-48.75,1.14-72.72-.67a106.93,106.93,0,0,1-10.65-1,6,6,0,0,1-4-1.84c-3.3-3.47-.54-9.48-3.94-12.42-1.64-1.42-3.19-.8-4.58.58-3.73,3.7-6.35,10.08-8.63,14.76a99.19,99.19,0,0,0-8.81,27.1c-2.36,14.18-1.17,28.54,2.45,42.4,1.19,4.58,2.73,9,4,13.61,1.92,7.09-2,11-8.34,14-6.73,3.13-15.71,6.09-23.17,6.21-13.31.21-19.05-11.23-21.71-22.58-5.36-22.9-1.46-47.9,5.94-69.88,7.77-23.09,19-45.21,30.71-66.54,10.89-19.9,22.55-40,39.74-55.21,16.4-14.5,37.4-22.44,59.29-18C245.53,56,263.38,70.23,276,87.94c13,18.29,22.81,39.34,33.05,59.26,8.18,15.9,16.59,32.35,21.16,49.72,5.56,21.09,9.57,46.07,4.22,67.55-2.29,9.21-7.51,18.31-17.9,19.23-5.93.53-12.06-1.43-17.62-3.24-5.9-1.92-17.22-5.6-17.9-13.13-.28-3.12,1.13-6.81,1.8-9.82C284,252,285.13,246.4,286,240.78c.29-1.89-2.6-2.7-2.89-.8Z"/><path d="M182.42,223c-.63,2.69-5.49,3.85-8.44,3.15a5,5,0,1,1,2.29-9.74C179.22,217.12,183.05,220.32,182.42,223Z"/><path d="M181,222.61c-.57,1.7-3.14,2.16-4.67,2.24-2.34.13-5.2-1.07-5.1-3.81.21-5.83,10.31-2.72,9.72,2-.24,1.91,2.76,1.89,3,0,.49-3.9-3.87-7.22-7.26-8-3.8-.91-8.1,1.43-8.48,5.53-.76,8.26,13.25,10.15,15.68,2.9C184.49,221.58,181.59,220.79,181,222.61Z"/><path d="M246.1,73.28c0,2.62-2.46,4.75-5.5,4.75s-5.5-1.13-5.5-3.75,2.46-5.75,5.5-5.75S246.1,70.65,246.1,73.28Z"/><path d="M244.6,73.28c-.26,4-8.3,4.55-8,.67.38-4.39,7.64-5.46,8-.67.13,1.92,3.13,1.93,3,0a6.78,6.78,0,0,0-7-6.25,7.48,7.48,0,0,0-7,7c-.17,3.77,3.38,5.44,6.66,5.51,3.78.08,7.06-2.37,7.32-6.24C247.72,71.35,244.72,71.36,244.6,73.28Z"/><path d="M253.12,220.09a5.27,5.27,0,0,1-3.23,6.69c-2.82,1.14-7.79.73-8.83-1.83s2.27-6.31,5.08-7.44A5.27,5.27,0,0,1,253.12,220.09Z"/><path d="M251.68,220.49c.81,2.48-.78,4.56-3.19,5.17-1.57.4-4.5.53-5.68-.83-2.39-2.75,6.24-9.72,9-4,.84,1.74,3.43.22,2.59-1.51-1.86-3.84-6.58-4.69-10.09-2.58-2.8,1.68-6.3,5.68-4.45,9.16,1.66,3.11,6.39,3.39,9.41,2.64,4-1,6.59-4.87,5.29-8.86C254,217.87,251.08,218.65,251.68,220.49Z"/><path d="M239,206.46c2.81-7,16.66-7,23.26-2.39a1,1,0,0,1-.93,1.72,15.23,15.23,0,0,0-5.69-1.26c-5,0-9,0-12,2a6.45,6.45,0,0,1-3.75,1.26A1,1,0,0,1,239,206.46Z"/><path d="M239.29,206.65c1.81-3.79,6-5.12,9.89-5.38a23.75,23.75,0,0,1,6.4.48c1.09.23,4.86,1,5.24,1.9.78,1.87-2.53.75-3.71.6a34.52,34.52,0,0,0-6.88,0,17.35,17.35,0,0,0-4.58.83c-1.08.39-6.06,3.55-6.3,1.35-.05-.47-.8-.48-.75,0,.14,1.22.37,1.5,1.63,1.68a5.29,5.29,0,0,0,2.44-.64c2.66-1.09,4.6-2.2,7.57-2.47a27.44,27.44,0,0,1,8.25.24c.89.21,2.78,1.41,3.75.81a1.45,1.45,0,0,0,.75-1.34c-.26-3.57-10.33-4.29-12.73-4.25-4.52.08-9.52,1.42-11.61,5.79C238.43,206.7,239.08,207.08,239.29,206.65Z"/><path d="M187.59,206.46c-2.81-7-16.66-7-23.26-2.39a1,1,0,0,0,.93,1.72,15.23,15.23,0,0,1,5.69-1.26c5,0,9,0,12,2a6.45,6.45,0,0,0,3.75,1.26A1,1,0,0,0,187.59,206.46Z"/><path d="M187.91,206.27c-2-4.2-6.7-5.59-11.07-5.77-2.46-.1-13,.52-13.26,4.23a1.47,1.47,0,0,0,.7,1.33c1,.6,3-.63,3.8-.8a27.08,27.08,0,0,1,7.55-.29,20.7,20.7,0,0,1,7.71,2.2,6.64,6.64,0,0,0,2.64.95c1.39,0,1.84-.29,2-1.66.05-.48-.7-.48-.75,0-.22,2-4.62-.65-5.75-1.12a15.53,15.53,0,0,0-4.43-1,34.12,34.12,0,0,0-7.59-.07c-1.12.14-4.58,1.44-3.71-.6,1-2.3,9.21-2.48,11.1-2.4,4.09.17,8.53,1.43,10.42,5.4C187.47,207.08,188.12,206.7,187.91,206.27Z"/><path d="M199.89,246.53c.31,4.11,4.8,6.08,8.39,6.56,4.75.64,9.46-1.22,11.41-5.8.75-1.76-1.84-3.29-2.59-1.51-1.39,3.27-4.29,4.69-7.77,4.43-2-.15-6.24-1.13-6.43-3.67-.15-1.91-3.15-1.93-3,0Z"/><path d="M209.76,277.42c6.52-.14,13.09-1.63,17.87-6.34,2.69-2.64,6.42-7.68,6.15-11.72-.17-2.55-1.66-3.2-3.73-1.87s-3.7,3.58-5.86,5a23.81,23.81,0,0,1-13.59,3.68c-4.85,0-9.5-.44-13.8-2.92-2.55-1.48-4.36-3.59-6.64-5.36-1.66-1.29-3.52-1.86-4.15.74-.87,3.61,3,9,5.14,11.41,4.78,5.36,11.62,7.15,18.59,7.37,1.93.06,1.93-2.94,0-3-6.64-.21-13-2-17.18-7.42a32.07,32.07,0,0,1-3.14-5.74c-.3-.6,0-2.46-.91-1.57s0,.36.37,1.13c1.33,2.69,6.71,5.35,9.23,6.4,4,1.66,8.21,1.93,12.48,1.95,7.23,0,16-2.52,20.58-8.65.49-.66-.26-1.33-.41-1.16a17.17,17.17,0,0,0-.61,2.36,19.31,19.31,0,0,1-3.69,6.2c-4.27,4.86-10.49,6.36-16.73,6.49C207.83,274.46,207.83,277.46,209.76,277.42Z"/><path class="cls-2" d="M220.63,84.86h0a.94.94,0,0,1-.78-1.46L222,80.14A6,6,0,0,0,220.6,72a20.18,20.18,0,0,0-11.54-4.14,20.55,20.55,0,0,0-14.88,5.89,5.94,5.94,0,0,0-.37,8l2.55,3.11h-.6a.93.93,0,0,0-.88.62c-.94,2.63-4.48,12.8-3.61,14.55,2.63,5.3,31.38,5,33.86,0,.87-1.74-2.67-11.92-3.61-14.55A.93.93,0,0,0,220.63,84.86Z"/><circle cx="235.6" cy="208.53" r="1.5"/><path d="M173.1,73.28c0,2.62,2.46,4.75,5.5,4.75s5.5-1.13,5.5-3.75-2.46-5.75-5.5-5.75S173.1,70.65,173.1,73.28Z"/><path d="M171.6,73.28a6.79,6.79,0,0,0,7,6.25c3.39.05,7.12-1.64,7-5.52a7.49,7.49,0,0,0-6.68-7,6.78,6.78,0,0,0-7.3,6.23c-.13,1.93,2.87,1.92,3,0,.32-4.79,7.58-3.73,8,.67.34,3.89-7.7,3.29-8-.67C174.47,71.36,171.47,71.35,171.6,73.28Z"/><path d="M286.35,206.82c7.51-5.41,12.17,5.28,12.12,11.51-.06,7.85-3.83,19.4-13,20.2-1.91.17-1.93,3.17,0,3,11.68-1,16.7-15,16-25.24-.56-8.06-7.9-18.3-16.58-12.06-1.55,1.12-.06,3.72,1.51,2.59Z"/><path class="cls-3" d="M288.6,214.53"/><path d="M286,229.56l.64,0,.67,1.65c1.18-1.54,3.64-3.46,4.78-5.74a11.89,11.89,0,0,0-.55-11.49c-.7-1.27-2.65-.13-1.94,1.14a9.87,9.87,0,0,1-.66,11.22c-1,1.42-2.52,2.38-3.56,3.73a1.13,1.13,0,0,0,.67,1.65,1.54,1.54,0,0,0,1.09-.2c1.3-.63.16-2.57-1.14-1.94Z"/><path d="M196.9,77.33c-3.52-5.83,6.7-10,10.51-10.68A18.54,18.54,0,0,1,220.33,69c5.91,3.54,2.7,7.39.13,11.24-2.05,3.08-3.91,6.58-6.28,9.42-.64.76-.51.87-1.54,1.54-3.22,2.1-5.5-1.4-7.29-3.6L196.66,77c-1.22-1.5-3.33.64-2.12,2.12L202.61,89c1.64,2,3.15,4.61,5.67,5.62,3.06,1.23,6-.14,7.94-2.59a107.9,107.9,0,0,0,9.87-14.81c4.63-8.69-8-13.68-14.7-13.88-7.3-.22-22.84,6-17.08,15.5A1.5,1.5,0,0,0,196.9,77.33Z"/><path d="M222.18,82.26a74,74,0,0,1,3.65,11.95c.76,4.22-4.35,4-7.48,4-2.56,0-5.09-.4-7.65-.43-2.73,0-5.45.18-8.18.11-2.93-.07-7.5.33-7.39-3.25.12-4,2.38-8.63,3.74-12.36.66-1.82-2.24-2.6-2.89-.8-.94,2.57-1.81,5.17-2.58,7.8-.65,2.22-2.15,5.81-1.25,8.16,2.09,5.48,14.31,3.28,18.56,3.33,4.59.05,16,2.7,18.2-3.33.88-2.38-.59-5.92-1.25-8.16-.77-2.63-1.64-5.23-2.58-7.8-.66-1.8-3.56-1-2.89.8Z"/><path class="cls-2" d="M270.1,247.78c0,5.11-5.14,11.25-10.25,11.25a9.25,9.25,0,0,1,0-18.5C265,240.53,270.1,242.67,270.1,247.78Z"/><path class="cls-2" d="M268.6,247.78a11,11,0,0,1-6.5,9.22,7.55,7.55,0,0,1-9.81-5.5c-2.35-10.45,15.62-13.11,16.31-3.72.14,1.91,3.14,1.93,3,0-1-13.28-23.78-10.59-22.44,3.08a10.79,10.79,0,0,0,11.64,9.6c6-.71,10.44-7,10.79-12.68C271.71,245.85,268.71,245.86,268.6,247.78Z"/><path class="cls-2" d="M149.6,248.28c0,5.11,5.14,11.25,10.25,11.25a9.25,9.25,0,0,0,0-18.5C154.74,241,149.6,243.17,149.6,248.28Z"/><path class="cls-2" d="M148.1,248.28c.34,5.66,4.67,11.82,10.59,12.65s11.27-3.84,11.84-9.57c1.36-13.67-21.47-16.35-22.44-3.08-.14,1.93,2.86,1.92,3,0,.69-9.37,18.67-6.74,16.31,3.72-.88,3.92-5.07,6.84-9.07,5.81s-7-5.57-7.24-9.53C151,246.36,148,246.35,148.1,248.28Z"/></g></g></svg>